<svg width="763" height="1024" viewBox="0 0 763 1024" fill="none" xmlns="http://www.w3.org/2000/svg">
<ellipse cx="587.5" cy="411" rx="587.5" ry="651" fill="#8B5CF6" fill-opacity="0.2"/>
<ellipse cx="966" cy="434" rx="560" ry="558" fill="#8B5CF6" fill-opacity="0.2"/>
<ellipse cx="737" cy="434" rx="560" ry="651" fill="#8B5CF6" fill-opacity="0.2"/>
<g clip-path="url(#clip0_350_2948)">
<path d="M391.856 634.4L392.462 620.777C392.525 620.744 392.588 620.71 392.651 620.677C399.144 617.271 406.584 623.437 404.511 630.47C402.56 637.086 401.249 644.22 397.677 650.011C395.567 653.375 392.727 656.221 389.368 658.338C386.008 660.455 382.215 661.789 378.27 662.241L370.022 667.291C368.89 660.981 369.14 654.502 370.753 648.298C372.367 642.094 375.307 636.313 379.369 631.355C381.676 628.596 384.321 626.138 387.242 624.04C389.217 629.249 391.856 634.4 391.856 634.4Z" fill="#F2F2F2"/>
<path d="M465.704 496.149C481.584 479.772 504.597 470.379 528.841 470.379L529.776 470.382C545.745 470.388 561.429 466.152 575.224 458.108L576.659 457.272L575.503 456.081C569.244 449.605 564.017 442.205 560.007 434.141C562.855 436.796 566.252 438.793 569.958 439.991C573.664 441.188 577.588 441.556 581.452 441.068C585.531 440.582 589.447 439.178 592.906 436.963C596.366 434.747 599.278 431.777 601.426 428.275C609.899 414.526 620 395.018 620 380.157C619.987 367.595 617.357 355.174 612.277 343.685C607.198 332.196 599.78 321.891 590.498 313.428C584.621 308.129 579.927 301.651 576.722 294.417C573.517 287.182 571.872 279.353 571.895 271.44L571.9 270.314C571.902 259.896 570.629 249.518 568.109 239.409L567.854 238.388L566.803 238.425C560.031 238.655 553.254 238.088 546.615 236.734C552.843 235.97 558.936 234.349 564.72 231.918L565.85 231.461L565.467 230.303C539.035 213.938 479.372 222.413 444.741 143.18C416.66 78.9331 317.582 200.212 317.582 270.314C317.582 277.467 324.661 286.92 319.362 291.648C262.075 342.756 301.602 375.575 314.064 408.598C317.021 416.433 310.61 425.035 310.61 433.511C310.61 434.95 310.647 436.434 310.719 437.924L310.829 440.214L312.739 438.944C316.518 436.468 320.021 433.595 323.187 430.374C319.902 437.934 318.354 446.135 318.657 454.372C318.959 462.61 321.105 470.675 324.936 477.973C330.94 489.305 336.748 497.417 342.199 502.083C359.661 517.026 382.172 524.735 405.13 523.632C428.087 522.529 449.755 512.698 465.704 496.149Z" fill="#E6E6E6"/>
<path d="M369.794 666.619C369.404 666.619 369.026 666.477 368.732 666.221C368.437 665.965 368.245 665.612 368.19 665.225C368.121 664.741 361.368 616.043 367.433 551.321C373.033 491.548 391.018 405.455 444.895 334.748C445.024 334.578 445.185 334.436 445.369 334.328C445.554 334.221 445.757 334.151 445.969 334.122C446.18 334.093 446.395 334.107 446.601 334.161C446.807 334.216 447.001 334.31 447.17 334.439C447.34 334.569 447.482 334.73 447.59 334.914C447.697 335.099 447.767 335.303 447.795 335.514C447.823 335.725 447.81 335.94 447.755 336.146C447.7 336.352 447.606 336.546 447.476 336.715C394.065 406.812 376.225 492.273 370.664 551.623C364.635 615.969 371.334 664.287 371.402 664.768C371.435 664.998 371.418 665.233 371.352 665.456C371.286 665.678 371.173 665.885 371.02 666.06C370.868 666.236 370.679 666.376 370.468 666.473C370.256 666.569 370.026 666.619 369.794 666.619Z" fill="#3F3D56"/>
<path d="M413.76 434.484C413.418 434.484 413.083 434.376 412.806 434.174C412.529 433.973 412.322 433.689 412.216 433.363C412.11 433.037 412.11 432.686 412.216 432.36C412.321 432.034 412.528 431.75 412.805 431.549C413.001 431.407 432.71 417.205 462.176 406.416C489.415 396.444 530.835 387.403 573.477 400.975C573.68 401.039 573.869 401.143 574.032 401.28C574.195 401.418 574.33 401.586 574.428 401.775C574.526 401.964 574.586 402.171 574.604 402.384C574.622 402.596 574.598 402.81 574.533 403.014C574.469 403.217 574.365 403.405 574.227 403.568C574.089 403.731 573.921 403.865 573.731 403.963C573.542 404.061 573.335 404.121 573.122 404.138C572.91 404.156 572.696 404.132 572.493 404.067C530.725 390.774 490.055 399.665 463.292 409.464C434.247 420.098 414.905 434.034 414.713 434.174C414.436 434.375 414.103 434.484 413.76 434.484Z" fill="#3F3D56"/>
<path d="M339.497 249.521C339.472 249.179 339.556 248.838 339.737 248.547C339.917 248.256 340.186 248.029 340.503 247.9C340.821 247.771 341.171 247.745 341.504 247.827C341.837 247.91 342.135 248.095 342.356 248.357C342.512 248.542 358.096 267.177 370.978 295.79C382.886 322.239 394.886 362.901 384.421 406.41C384.32 406.828 384.058 407.189 383.691 407.414C383.324 407.639 382.882 407.708 382.464 407.608C382.046 407.507 381.684 407.244 381.46 406.877C381.235 406.51 381.165 406.069 381.266 405.651C391.516 363.034 379.719 323.11 368.019 297.122C355.32 268.918 340.028 250.63 339.875 250.449C339.654 250.187 339.521 249.862 339.497 249.521Z" fill="#3F3D56"/>
<path d="M341.693 333.188C340.324 344.234 332.67 353.341 321.541 353.341C316.196 353.341 311.07 351.217 307.291 347.438C303.511 343.659 301.388 338.533 301.388 333.188C301.388 322.058 310.458 314.065 321.541 313.036C333.299 311.944 343.451 319.007 341.693 333.188Z" fill="#030712"/>
<path d="M312.207 657.743L304.533 657.742L300.882 628.142L312.208 628.142L312.207 657.743Z" fill="#FFB6B6"/>
<path d="M312.476 665.749L288.877 665.748V665.449C288.877 663.013 289.845 660.677 291.568 658.954C293.29 657.232 295.627 656.264 298.063 656.264L302.374 652.994L310.417 656.264L312.477 656.265L312.476 665.749Z" fill="#030712"/>
<path d="M342.435 657.743L334.761 657.742L331.11 628.142L342.437 628.142L342.435 657.743Z" fill="#FFB6B6"/>
<path d="M342.705 665.749L319.106 665.748V665.449C319.106 663.013 320.074 660.677 321.796 658.954C323.519 657.232 325.855 656.264 328.291 656.264L332.603 652.994L340.645 656.264L342.705 656.265L342.705 665.749Z" fill="#030712"/>
<path d="M285.798 472.347L280.372 490.95L286.764 569.734C286.764 569.734 283.472 574.66 285.798 574.66C288.123 574.66 291.105 575.752 289.226 578.694C287.348 581.636 293.768 592.197 293.768 592.197L302.85 648.294L314.421 648.123C314.421 648.123 320.304 644.845 317.003 641.531C313.701 638.217 311.376 638.217 314.476 635.117C317.577 632.017 317.577 632.95 317.577 630.546C317.577 628.141 320.683 598.755 313.316 587.482L315.536 541.523L320.764 586.603L331.528 646.743L342.675 646.651C342.675 646.651 347.824 641.689 347.815 638.015C347.805 634.342 344.634 634.037 346.994 631.864C349.355 629.691 349.355 596.313 342.38 577.76C342.38 577.76 338.433 567.394 342.388 563.842C346.343 560.29 342.393 556.226 342.393 556.226C342.393 556.226 336.129 553.961 342.399 547.437C348.669 540.913 342.433 494.77 342.433 494.77C342.433 494.77 349.287 476.144 342.345 468.82C335.404 461.496 285.798 472.347 285.798 472.347Z" fill="#030712"/>
<path d="M382.432 504.398L372.752 481.003L365.125 485.241L369.731 509.038C369.269 510.546 369.238 512.152 369.64 513.677C370.041 515.202 370.86 516.584 372.004 517.669C373.149 518.754 374.573 519.498 376.117 519.817C377.661 520.137 379.263 520.02 380.744 519.479C382.225 518.938 383.525 517.994 384.5 516.754C385.474 515.515 386.083 514.028 386.258 512.461C386.433 510.894 386.168 509.309 385.492 507.885C384.816 506.46 383.757 505.253 382.432 504.398Z" fill="#FFB6B6"/>
<path d="M219.993 319.405L234.722 339.998L241.19 334.143L231.312 312.007C231.42 310.434 231.087 308.863 230.35 307.469C229.613 306.075 228.502 304.914 227.142 304.116C225.782 303.319 224.226 302.917 222.65 302.956C221.074 302.994 219.54 303.471 218.22 304.334C216.9 305.197 215.847 306.41 215.179 307.838C214.511 309.267 214.255 310.853 214.439 312.419C214.623 313.985 215.241 315.468 216.222 316.702C217.203 317.936 218.509 318.873 219.993 319.405Z" fill="#FFB6B6"/>
<path d="M284.336 474.255C274.782 489.073 322.805 507.879 341.231 500.329C344.458 499.007 355.557 494.64 347.97 488.587C340.384 482.533 348.85 481.681 349.05 477.74C349.184 475.105 347.144 469.326 349.272 469.573C351.401 469.821 353.892 466.178 349.256 464.61C344.621 463.042 349.207 461.612 349.166 460.124C348.723 443.881 336.261 418.046 336.261 418.046L358.716 475.447C358.716 475.447 358.55 485.378 361.414 482.343C364.277 479.308 364.069 489.13 364.069 489.13C364.069 489.13 368.327 492.102 365.878 493.756C363.43 495.41 368.515 500.494 368.515 500.494L380.379 499.647C380.379 499.647 380.193 490.833 378.167 488.884C376.141 486.935 377.136 483.868 377.136 483.868C377.136 483.868 371.862 479.2 375.398 475.409C379.946 470.533 363.365 388.188 357.644 389.003C356.835 385.066 354.953 381.429 352.206 378.495C349.459 375.561 345.955 373.443 342.08 372.376L329.266 368.848L326.99 359.82H308.947L305.804 365.752L292.087 371.943C289.503 368.297 287.572 364.455 276.992 363.21C276.992 363.21 248.482 337.27 249.874 335.245C251.266 333.219 246.846 328.477 246.846 328.477C246.846 328.477 243.072 327.242 245.202 326.582C247.331 325.923 243.306 324.398 243.306 324.398C243.306 324.398 239.577 323.418 241.336 322.128C243.094 320.838 235.467 319.991 235.467 319.991L225.572 328.065L227.572 331.456C227.572 331.456 226.352 336.074 227.944 334.388C229.535 332.702 229.835 337.595 229.835 337.595C229.835 337.595 230.648 342.952 235.467 344.566C240.287 346.18 243.942 361.515 243.942 361.515C255.308 376.294 268.722 387.823 284.618 395.412C278.423 402.523 284.336 474.255 284.336 474.255Z" fill="#8B5CF6"/>
<path d="M319.313 354.537C309.443 354.537 301.442 346.536 301.442 336.667C301.442 326.797 309.443 318.796 319.313 318.796C329.182 318.796 337.183 326.797 337.183 336.667C337.183 346.536 329.182 354.537 319.313 354.537Z" fill="#FFB6B6"/>
<path d="M337.818 338.614C337.252 342.497 333.942 347.915 334.717 347.915C335.492 347.915 341.003 331.906 335.492 330.863C331.495 330.105 330.601 330.77 326.865 329.15L327.393 329.646C324.92 331.444 321.479 330.336 318.657 329.165C315.828 328.002 312.394 326.894 309.914 328.685C308.356 329.808 307.697 331.762 306.729 333.42C305.76 335.087 303.969 336.66 302.125 336.149C300.644 335.738 299.791 334.079 299.799 332.545C299.807 331.01 301.805 329.55 301.132 328.173C299.138 324.093 300.932 321.311 305.279 319.391C306.86 319.151 308.442 318.905 310.023 318.655C309.194 317.507 308.19 316.498 307.046 315.663C307.529 314.425 308.365 313.355 309.449 312.586C310.713 311.834 312.278 311.888 313.743 311.966C317.014 312.136 320.282 312.307 323.548 312.477C325.966 312.601 328.47 312.749 330.632 313.857C333.33 315.244 335.097 317.95 336.384 320.701C339.267 326.886 338.81 331.862 337.818 338.614Z" fill="#030712"/>
<path d="M412.157 667.762L236.405 668C236.16 668 235.925 667.903 235.752 667.73C235.579 667.557 235.482 667.322 235.482 667.077C235.482 666.832 235.579 666.598 235.752 666.425C235.925 666.251 236.16 666.154 236.405 666.154L412.157 665.916C412.402 665.916 412.637 666.013 412.81 666.186C412.983 666.359 413.08 666.594 413.08 666.839C413.08 667.084 412.983 667.318 412.81 667.491C412.637 667.665 412.402 667.762 412.157 667.762Z" fill="#CACACA"/>
<path d="M475.722 587.314C475.398 585.087 477.73 582.905 480.932 582.439C484.133 581.973 486.99 583.401 487.314 585.628C487.638 587.854 485.306 590.037 482.105 590.503C478.904 590.969 476.046 589.541 475.722 587.314Z" fill="#E6E6E6"/>
<path d="M437.61 583.595C437.286 581.368 439.618 579.185 442.819 578.72C446.02 578.254 448.878 579.682 449.202 581.908C449.526 584.135 447.194 586.318 443.993 586.784C440.791 587.249 437.934 585.822 437.61 583.595Z" fill="#3F3D56"/>
<path d="M486.158 556.459C485.834 554.232 488.167 552.05 491.368 551.584C494.569 551.118 497.427 552.546 497.751 554.773C498.075 556.999 495.742 559.182 492.541 559.648C489.34 560.114 486.482 558.686 486.158 556.459Z" fill="#EF4444"/>
<path d="M502.719 543.82C502.704 541.776 503.844 540.11 505.266 540.099C506.689 540.088 507.854 541.737 507.869 543.781C507.885 545.826 506.745 547.492 505.322 547.502C503.9 547.513 502.735 545.865 502.719 543.82Z" fill="#E6E6E6"/>
<path d="M508.335 520.28C508.32 518.235 509.46 516.569 510.882 516.559C512.305 516.548 513.47 518.196 513.485 520.241C513.501 522.285 512.361 523.951 510.938 523.962C509.516 523.973 508.351 522.324 508.335 520.28Z" fill="#3F3D56"/>
<path d="M464.663 561.71C464.647 559.666 465.788 558 467.21 557.989C468.632 557.978 469.797 559.627 469.813 561.671C469.828 563.715 468.688 565.381 467.266 565.392C465.844 565.403 464.678 563.754 464.663 561.71Z" fill="#E6E6E6"/>
<path d="M483.08 570.906C483.065 568.861 484.205 567.195 485.627 567.185C487.05 567.174 488.215 568.822 488.23 570.867C488.246 572.911 487.106 574.577 485.683 574.588C484.261 574.599 483.096 572.95 483.08 570.906Z" fill="#EF4444"/>
<path d="M457.442 587.902C457.427 585.857 458.567 584.191 459.989 584.181C461.411 584.17 462.577 585.819 462.592 587.863C462.608 589.907 461.467 591.573 460.045 591.584C458.623 591.595 457.458 589.946 457.442 587.902Z" fill="#3F3D56"/>
<path d="M182.737 467.949C182.413 465.723 184.745 463.54 187.946 463.074C191.148 462.608 194.005 464.036 194.329 466.263C194.653 468.49 192.321 470.672 189.12 471.138C185.919 471.604 183.061 470.176 182.737 467.949Z" fill="#E6E6E6"/>
<path d="M144.625 464.231C144.301 462.004 146.633 459.821 149.834 459.355C153.035 458.89 155.893 460.317 156.217 462.544C156.541 464.771 154.208 466.954 151.007 467.419C147.806 467.885 144.949 466.458 144.625 464.231Z" fill="#3F3D56"/>
<path d="M193.174 437.095C192.85 434.868 195.182 432.685 198.384 432.22C201.585 431.754 204.442 433.182 204.766 435.408C205.09 437.635 202.758 439.818 199.557 440.284C196.356 440.749 193.498 439.322 193.174 437.095Z" fill="#EF4444"/>
<path d="M209.734 424.456C209.719 422.412 210.859 420.746 212.281 420.735C213.704 420.724 214.869 422.373 214.884 424.417C214.9 426.461 213.759 428.127 212.337 428.138C210.915 428.149 209.75 426.5 209.734 424.456Z" fill="#E6E6E6"/>
<path d="M215.35 400.915C215.335 398.871 216.475 397.205 217.897 397.194C219.32 397.183 220.485 398.832 220.5 400.876C220.516 402.92 219.376 404.586 217.953 404.597C216.531 404.608 215.366 402.959 215.35 400.915Z" fill="#3F3D56"/>
<path d="M171.678 442.345C171.662 440.301 172.802 438.635 174.225 438.624C175.647 438.613 176.812 440.262 176.828 442.306C176.843 444.351 175.703 446.017 174.281 446.027C172.858 446.038 171.693 444.389 171.678 442.345Z" fill="#E6E6E6"/>
<path d="M190.095 451.541C190.08 449.497 191.22 447.831 192.642 447.82C194.064 447.809 195.23 449.458 195.245 451.502C195.261 453.546 194.12 455.212 192.698 455.223C191.276 455.234 190.111 453.585 190.095 451.541Z" fill="#EF4444"/>
<path d="M164.457 468.537C164.442 466.493 165.582 464.827 167.004 464.816C168.426 464.805 169.592 466.454 169.607 468.498C169.623 470.542 168.482 472.208 167.06 472.219C165.638 472.23 164.473 470.581 164.457 468.537Z" fill="#3F3D56"/>
<path d="M324.579 247.048C324.255 244.821 326.587 242.638 329.789 242.173C332.99 241.707 335.847 243.135 336.171 245.361C336.495 247.588 334.163 249.771 330.962 250.237C327.761 250.703 324.903 249.275 324.579 247.048Z" fill="#FAFCFF"/>
<path d="M286.467 243.329C286.143 241.103 288.475 238.92 291.676 238.454C294.877 237.988 297.735 239.416 298.059 241.643C298.383 243.87 296.05 246.052 292.849 246.518C289.648 246.984 286.791 245.556 286.467 243.329Z" fill="#3F3D56"/>
<path d="M335.015 216.193C334.691 213.966 337.024 211.784 340.225 211.318C343.426 210.852 346.284 212.28 346.608 214.506C346.932 216.733 344.599 218.916 341.398 219.382C338.197 219.848 335.339 218.42 335.015 216.193Z" fill="#EF4444"/>
<path d="M351.576 203.555C351.561 201.51 352.701 199.844 354.123 199.834C355.546 199.823 356.711 201.471 356.726 203.516C356.742 205.56 355.601 207.226 354.179 207.237C352.757 207.248 351.592 205.599 351.576 203.555Z" fill="#E6E6E6"/>
<path d="M357.192 180.014C357.177 177.969 358.317 176.303 359.739 176.293C361.162 176.282 362.327 177.93 362.342 179.975C362.358 182.019 361.217 183.685 359.795 183.696C358.373 183.706 357.208 182.058 357.192 180.014Z" fill="#3F3D56"/>
<path d="M313.52 221.444C313.504 219.399 314.644 217.733 316.067 217.723C317.489 217.712 318.654 219.361 318.67 221.405C318.685 223.449 317.545 225.115 316.123 225.126C314.7 225.137 313.535 223.488 313.52 221.444Z" fill="#E6E6E6"/>
<path d="M331.937 230.64C331.922 228.595 333.062 226.929 334.484 226.919C335.906 226.908 337.072 228.556 337.087 230.601C337.103 232.645 335.962 234.311 334.54 234.322C333.118 234.332 331.953 232.684 331.937 230.64Z" fill="#EF4444"/>
<path d="M306.299 247.636C306.284 245.591 307.424 243.925 308.846 243.915C310.268 243.904 311.434 245.552 311.449 247.597C311.465 249.641 310.324 251.307 308.902 251.318C307.48 251.329 306.315 249.68 306.299 247.636Z" fill="#3F3D56"/>
</g>
<defs>
<clipPath id="clip0_350_2948">
<rect width="475.405" height="543" fill="white" transform="matrix(-1 0 0 1 620 125)"/>
</clipPath>
</defs>
</svg>
